HIERARCHY
ROOT hip
{
  OFFSET 0 0 0
  CHANNELS 6 Xposition Yposition Zposition Zrotation Yrotation Xrotation
  JOINT abdomen
  {
    OFFSET 0 20.6881 -0.73152
    CHANNELS 3 Zrotation Xrotation Yrotation
    JOINT chest
    {
      OFFSET 0 11.7043 -0.48768
      CHANNELS 3 Zrotation Xrotation Yrotation
      JOINT neck
      {
        OFFSET 0 22.1894 -2.19456
        CHANNELS 3 Zrotation Xrotation Yrotation
        JOINT head
        {
          OFFSET -0.24384 7.07133 1.2192
          CHANNELS 3 Zrotation Xrotation Yrotation
          JOINT leftEye
          {
            OFFSET 4.14528 8.04674 8.04672
            CHANNELS 3 Zrotation Xrotation Yrotation
            End Site
            {
              OFFSET 1 0 0
            }
          }
          JOINT rightEye
          {
            OFFSET -3.6576 8.04674 8.04672
            CHANNELS 3 Zrotation Xrotation Yrotation
            End Site
            {
              OFFSET 1 0 0
            }
          }
        }
      }
      JOINT rCollar
      {
        OFFSET -2.68224 19.2634 -4.8768
        CHANNELS 3 Zrotation Xrotation Yrotation
        JOINT rShldr
        {
          OFFSET -8.77824 -1.95073 1.46304
          CHANNELS 3 Zrotation Xrotation Yrotation
          JOINT rForeArm
          {
            OFFSET -28.1742 -1.7115 0.48768
            CHANNELS 3 Zrotation Xrotation Yrotation
            JOINT rHand
            {
              OFFSET -22.5879 0.773209 7.07136
              CHANNELS 3 Zrotation Xrotation Yrotation
              JOINT rThumb1
              {
                OFFSET -1.2192 -0.487915 3.41376
                CHANNELS 3 Zrotation Xrotation Yrotation
                JOINT rThumb2
                {
                  OFFSET -3.37035 -0.52449 3.41376
                  CHANNELS 3 Zrotation Xrotation Yrotation
                  End Site
                  {
                    OFFSET -1.78271 -1.18214 1.43049
                  }
                }
              }
              JOINT rIndex1
              {
                OFFSET -7.75947 0.938293 5.60832
                CHANNELS 3 Zrotation Xrotation Yrotation
                JOINT rIndex2
                {
                  OFFSET -2.54057 -0.884171 1.56538
                  CHANNELS 3 Zrotation Xrotation Yrotation
                  End Site
                  {
                    OFFSET -1.62519 -0.234802 1.16502
                  }
                }
              }
              JOINT rMid1
              {
                OFFSET -8.24714 1.18213 3.41376
                CHANNELS 3 Zrotation Xrotation Yrotation
                JOINT rMid2
                {
                  OFFSET -3.10165 -0.590103 1.0647
                  CHANNELS 3 Zrotation Xrotation Yrotation
                  End Site
                  {
                    OFFSET -2.48547 -0.328903 0.83742
                  }
                }
              }
              JOINT rRing1
              {
                OFFSET -8.82822 0.546677 1.51678
                CHANNELS 3 Zrotation Xrotation Yrotation
                JOINT rRing2
                {
                  OFFSET -2.60934 -0.819778 -0.0198488
                  CHANNELS 3 Zrotation Xrotation Yrotation
                  End Site
                  {
                    OFFSET -2.33842 -0.294052 0.168128
                  }
                }
              }
              JOINT rPinky1
              {
                OFFSET -8.27202 -0.0477905 -0.4584
                CHANNELS 3 Zrotation Xrotation Yrotation
                JOINT rPinky2
                {
                  OFFSET -1.82734 -0.647385 -0.700984
                  CHANNELS 3 Zrotation Xrotation Yrotation
                  End Site
                  {
                    OFFSET -1.69225 -0.51767 -0.607171
                  }
                }
              }
            }
          }
        }
      }
      JOINT lCollar
      {
        OFFSET 2.68224 19.2634 -4.8768
        CHANNELS 3 Zrotation Xrotation Yrotation
        JOINT lShldr
        {
          OFFSET 8.77824 -1.95073 1.46304
          CHANNELS 3 Zrotation Xrotation Yrotation
          JOINT lForeArm
          {
            OFFSET 28.1742 -1.7115 0.48768
            CHANNELS 3 Zrotation Xrotation Yrotation
            JOINT lHand
            {
              OFFSET 22.5879 0.773209 7.07136
              CHANNELS 3 Zrotation Xrotation Yrotation
              JOINT lThumb1
              {
                OFFSET 1.2192 -0.487915 3.41376
                CHANNELS 3 Zrotation Xrotation Yrotation
                JOINT lThumb2
                {
                  OFFSET 3.37035 -0.52449 3.41376
                  CHANNELS 3 Zrotation Xrotation Yrotation
                  End Site
                  {
                    OFFSET 1.78271 -1.18214 1.43049
                  }
                }
              }
              JOINT lIndex1
              {
                OFFSET 7.75947 0.938293 5.60832
                CHANNELS 3 Zrotation Xrotation Yrotation
                JOINT lIndex2
                {
                  OFFSET 2.54057 -0.884171 1.56538
                  CHANNELS 3 Zrotation Xrotation Yrotation
                  End Site
                  {
                    OFFSET 1.62519 -0.234802 1.16502
                  }
                }
              }
              JOINT lMid1
              {
                OFFSET 8.24714 1.18213 3.41376
                CHANNELS 3 Zrotation Xrotation Yrotation
                JOINT lMid2
                {
                  OFFSET 3.10165 -0.590103 1.0647
                  CHANNELS 3 Zrotation Xrotation Yrotation
                  End Site
                  {
                    OFFSET 2.48547 -0.328903 0.83742
                  }
                }
              }
              JOINT lRing1
              {
                OFFSET 8.82822 0.546677 1.51678
                CHANNELS 3 Zrotation Xrotation Yrotation
                JOINT lRing2
                {
                  OFFSET 2.60934 -0.819778 -0.0198488
                  CHANNELS 3 Zrotation Xrotation Yrotation
                  End Site
                  {
                    OFFSET 2.33842 -0.294052 0.168128
                  }
                }
              }
              JOINT lPinky1
              {
                OFFSET 8.27202 -0.0477905 -0.4584
                CHANNELS 3 Zrotation Xrotation Yrotation
                JOINT lPinky2
                {
                  OFFSET 1.82734 -0.647385 -0.700984
                  CHANNELS 3 Zrotation Xrotation Yrotation
                  End Site
                  {
                    OFFSET 1.69225 -0.51767 -0.607171
                  }
                }
              }
            }
          }
        }
      }
    }
  }
  JOINT rButtock
  {
    OFFSET -8.77824 4.35084 1.2192
    CHANNELS 3 Zrotation Xrotation Yrotation
    JOINT rThigh
    {
      OFFSET 0 -1.70687 -2.19456
      CHANNELS 3 Zrotation Xrotation Yrotation
      JOINT rShin
      {
        OFFSET 0 -36.8199 0.73152
        CHANNELS 3 Zrotation Xrotation Yrotation
        JOINT rFoot
        {
          OFFSET 0.73152 -45.1104 -5.12064
          CHANNELS 3 Zrotation Xrotation Yrotation
          End Site
          {
            OFFSET -1.1221 -3.69964 12.103
          }
        }
      }
    }
  }
  JOINT lButtock
  {
    OFFSET 8.77824 4.35084 1.2192
    CHANNELS 3 Zrotation Xrotation Yrotation
    JOINT lThigh
    {
      OFFSET 0 -1.70687 -2.19456
      CHANNELS 3 Zrotation Xrotation Yrotation
      JOINT lShin
      {
        OFFSET 0 -36.8199 0.73152
        CHANNELS 3 Zrotation Xrotation Yrotation
        JOINT lFoot
        {
          OFFSET -0.73152 -45.1104 -5.12064
          CHANNELS 3 Zrotation Xrotation Yrotation
          End Site
          {
            OFFSET 1.1221 -3.69964 12.103
          }
        }
      }
    }
  }
}
MOTION
Frames:	6
Frame Time:	0.00833333
-47.7035 85.9437 -164.598 354.952 171.325 -2.0033 -6.54023 5.69964 -5.46185 2.26228 -6.83648 -1.50342 -12.9875 16.4263 -15.2121 19.3292 -14.5973 -26.23 -0.0 0.0 0.0 -0.0 0.0 0.0 -8.09569e-14 -6.18435e-14 -2.24827e-13 72.9927 24.4257 -13.046 -14.191 -7.10845 25.9416 -0.31526 15.7698 2.27467 1.51589e-09 -1.71727e-09 -1.94057e-10 2.61645e-09 -2.96627e-09 -3.56751e-10 1.51589e-09 -1.71727e-09 -1.94067e-10 7.73091 5.47488 0.417314 1.51589e-09 -1.71727e-09 -1.94063e-10 2.90554 0.965183 0.102902 1.5159e-09 -1.71727e-09 -1.94058e-10 10.2786 0.731801 0.0259123 1.51589e-09 -1.71727e-09 -1.94049e-10 2.22167 -0.733487 -0.20892 -8.10234e-14 -6.18442e-14 -2.25059e-13 -66.977 13.8923 -3.7004 16.3374 -9.00404 -30.3892 0.555821 20.6992 -3.04398 2.1491e-09 3.92707e-09 9.00969e-11 3.71264e-09 6.72211e-09 1.12848e-10 2.14909e-09 3.92707e-09 9.00996e-11 -7.73091 5.47488 -0.417314 2.14909e-09 3.92707e-09 9.00971e-11 -2.90554 0.965183 -0.102902 2.14909e-09 3.92707e-09 9.00996e-11 -10.2786 0.731801 -0.0259123 2.1491e-09 3.92707e-09 9.00947e-11 -2.22167 -0.733487 0.20892 -2.03217e-16 0.0 -3.88251e-19 -0.810446 -33.5178 -8.78397 -0.747083 55.7642 1.59759 -7.76122 -8.92356 -24.3726 2.03217e-16 0.0 3.88251e-19 -11.9245 -6.09076 -17.3784 0.0291326 20.9719 -0.580149 10.1349 -15.5659 27.1083
-47.5683 86.0181 -165.15 355.031 170.958 -1.9112 -6.35582 5.6986 -5.70978 2.31934 -6.75904 -1.56268 -12.9347 16.3951 -15.299 19.245 -14.8556 -26.4062 -0.0 0.0 0.0 -0.0 0.0 0.0 -5.98098e-14 -3.90364e-14 -7.94859e-14 72.9322 23.9864 -13.0443 -14.1038 -7.03722 25.7659 -0.317666 15.8258 2.28321 6.75165e-10 -5.42165e-10 1.61518e-10 1.16865e-09 -9.36429e-10 2.69583e-10 6.75165e-10 -5.42168e-10 1.6151e-10 7.73091 5.47488 0.417314 6.75164e-10 -5.42168e-10 1.61514e-10 2.90554 0.965183 0.102902 6.7517e-10 -5.4217e-10 1.61522e-10 10.2786 0.731801 0.0259123 6.75161e-10 -5.42169e-10 1.61529e-10 2.22167 -0.733487 -0.20892 -5.98719e-14 -3.90362e-14 -7.97686e-14 -66.6808 14.5213 -4.40982 16.4752 -9.13554 -30.6844 0.522806 20.1125 -2.9499 6.05454e-10 1.78351e-09 3.83533e-10 1.0507e-09 3.08048e-09 6.50081e-10 6.05449e-10 1.78351e-09 3.8354e-10 -7.73091 5.47488 -0.417314 6.05452e-10 1.78352e-09 3.83534e-10 -2.90554 0.965183 -0.102902 6.05447e-10 1.78351e-09 3.83536e-10 -10.2786 0.731801 -0.0259123 6.05459e-10 1.78351e-09 3.83532e-10 -2.22167 -0.733487 0.20892 -2.03217e-16 0.0 -3.88251e-19 -0.344113 -33.6578 -8.8473 -0.649446 53.4924 1.49114 -8.11355 -9.196 -25.4597 2.03217e-16 0.0 3.88251e-19 -11.6612 -5.55115 -17.0866 0.0312404 20.5065 -0.587655 10.2767 -15.6087 27.3252
-47.4304 86.1051 -165.703 355.06 170.46 -1.8964 -6.18772 5.69285 -5.93117 2.37032 -6.66934 -1.61592 -12.9063 16.3723 -15.3744 19.2064 -15.1208 -26.5545 -0.0 0.0 0.0 -0.0 0.0 0.0 -4.07644e-14 -1.84782e-14 8.26009e-14 72.9014 23.6395 -13.0646 -14.0593 -7.00166 25.6751 -0.316634 15.8025 2.27965 -2.36277e-10 7.10729e-10 5.57872e-10 -4.00968e-10 1.22768e-09 9.67342e-10 -2.36277e-10 7.10727e-10 5.57865e-10 7.73091 5.47488 0.417314 -2.36277e-10 7.10727e-10 5.5787e-10 2.90554 0.965183 0.102902 -2.36272e-10 7.10725e-10 5.57879e-10 10.2786 0.731801 0.0259123 -2.36279e-10 7.10725e-10 5.57886e-10 2.22167 -0.733487 -0.20892 -4.08258e-14 -1.84769e-14 8.22728e-14 -66.3571 15.1881 -5.10467 16.6163 -9.27205 -30.9866 0.492691 19.5532 -2.86097 -1.04098e-09 -5.11185e-10 6.64269e-10 -1.78901e-09 -8.19081e-10 1.16733e-09 -1.04099e-09 -5.11189e-10 6.64279e-10 -7.73091 5.47488 -0.417314 -1.04098e-09 -5.11163e-10 6.6427e-10 -2.90554 0.965183 -0.102902 -1.04099e-09 -5.1119e-10 6.64272e-10 -10.2786 0.731801 -0.0259123 -1.04097e-09 -5.11187e-10 6.64269e-10 -2.22167 -0.733487 0.20892 -2.03217e-16 0.0 -3.88251e-19 0.145625 -33.7187 -8.85463 -0.562626 51.1115 1.39015 -8.47364 -9.40893 -26.6398 2.03217e-16 0.0 3.88251e-19 -11.3906 -4.96171 -16.7667 0.0324583 19.9459 -0.588872 10.3911 -15.6288 27.5236
-47.2708 86.1854 -166.238 355.039 169.845 -1.8237 -6.08204 5.68177 -6.1369 2.44252 -6.62601 -1.6638 -12.9397 16.438 -15.4326 19.2818 -15.4034 -26.6593 -0.0 0.0 0.0 -0.0 0.0 0.0 -3.97988e-14 -1.55062e-14 2.10066e-13 72.9168 23.4585 -13.1622 -14.0677 -7.00931 25.6905 -0.311753 15.6895 2.26242 -8.46088e-10 1.5377e-09 8.97909e-10 -1.45055e-09 2.65585e-09 1.56345e-09 -8.46088e-10 1.5377e-09 8.97902e-10 7.73091 5.47488 0.417314 -8.46088e-10 1.5377e-09 8.97909e-10 2.90554 0.965183 0.102902 -8.46083e-10 1.5377e-09 8.97918e-10 10.2786 0.731801 0.0259123 -8.4609e-10 1.5377e-09 8.97925e-10 2.22167 -0.733487 -0.20892 -3.98668e-14 -1.5504e-14 2.09718e-13 -66.045 15.9252 -5.70502 16.7723 -9.42508 -31.3207 0.467764 19.0684 -2.78451 -2.13093e-09 -1.94909e-09 8.38859e-10 -3.66901e-09 -3.25935e-09 1.4901e-09 -2.13093e-09 -1.9491e-09 8.38871e-10 -7.73091 5.47488 -0.417314 -2.13093e-09 -1.94907e-09 8.38859e-10 -2.90554 0.965183 -0.102902 -2.13093e-09 -1.9491e-09 8.38862e-10 -10.2786 0.731801 -0.0259123 -2.13092e-09 -1.9491e-09 8.38859e-10 -2.22167 -0.733487 0.20892 -2.03217e-16 0.0 -3.88251e-19 0.645889 -33.7188 -8.74918 -0.485427 48.7238 1.30026 -8.97694 -9.88649 -27.8592 2.03217e-16 0.0 3.88251e-19 -11.1665 -4.37062 -16.4261 0.0330994 19.3809 -0.586668 10.498 -15.6989 27.6589
-47.0926 86.2642 -166.774 355.022 169.235 -1.7439 -6.04726 5.68732 -6.32575 2.5565 -6.66404 -1.7046 -13.0981 16.6645 -15.4704 19.5718 -15.7352 -26.7051 -0.0 0.0 0.0 -0.0 0.0 0.0 -6.5475e-14 -3.94603e-14 3.0478e-13 72.9882 23.5203 -13.3742 -14.1457 -7.07317 25.8467 -0.301168 15.4369 2.22406 -1.06594e-09 1.78883e-09 1.19904e-09 -1.82751e-09 3.08892e-09 2.0866e-09 -1.06594e-09 1.78883e-09 1.19903e-09 7.73091 5.47488 0.417314 -1.06594e-09 1.78883e-09 1.19904e-09 2.90554 0.965183 0.102902 -1.06593e-09 1.78883e-09 1.19904e-09 10.2786 0.731801 0.0259123 -1.06594e-09 1.78883e-09 1.19905e-09 2.22167 -0.733487 -0.20892 -6.55645e-14 -3.94574e-14 3.04452e-13 -65.7528 16.7849 -6.18515 16.9471 -9.5983 -31.6974 0.446954 18.654 -2.7195 -2.4797e-09 -2.20111e-09 8.58511e-10 -4.2709e-09 -3.67715e-09 1.53022e-09 -2.47971e-09 -2.20111e-09 8.58524e-10 -7.73091 5.47488 -0.417314 -2.47971e-09 -2.20109e-09 8.58509e-10 -2.90554 0.965183 -0.102902 -2.47971e-09 -2.20111e-09 8.58514e-10 -10.2786 0.731801 -0.0259123 -2.47969e-09 -2.20111e-09 8.58509e-10 -2.22167 -0.733487 0.20892 -2.03217e-16 0.0 -3.88251e-19 1.16122 -33.6315 -8.53885 -0.414772 46.3068 1.21911 -9.69724 -10.7286 -29.1299 2.03217e-16 0.0 3.88251e-19 -10.9941 -3.77039 -16.0713 0.0335163 18.8208 -0.580525 10.6064 -15.8735 27.6941
-46.9398 86.3421 -167.276 354.963 168.745 -1.6758 -6.05998 5.70248 -6.49331 2.69312 -6.7457 -1.73862 -13.3435 16.9922 -15.4919 20.0137 -16.1015 -26.7042 -0.0 0.0 0.0 -0.0 0.0 0.0 -1.07838e-13 -8.04106e-14 3.8895e-13 73.1077 23.7654 -13.6644 -14.2823 -7.18508 26.1229 -0.286278 15.0661 2.16798 -1.09075e-09 1.73796e-09 1.49861e-09 -1.86799e-09 3.00005e-09 2.60415e-09 -1.09075e-09 1.73796e-09 1.4986e-09 7.73091 5.47488 0.417314 -1.09075e-09 1.73796e-09 1.49861e-09 2.90554 0.965183 0.102902 -1.09075e-09 1.73796e-09 1.49861e-09 10.2786 0.731801 0.0259123 -1.09076e-09 1.73796e-09 1.49862e-09 2.22167 -0.733487 -0.20892 -1.07959e-13 -8.04069e-14 3.88667e-13 -65.4617 17.7361 -6.58993 17.1332 -9.78457 -32.1025 0.42883 18.2907 -2.66263 -2.44189e-09 -1.82489e-09 7.81022e-10 -4.20635e-09 -3.02344e-09 1.39464e-09 -2.44189e-09 -1.82489e-09 7.81034e-10 -7.73091 5.47488 -0.417314 -2.44189e-09 -1.82489e-09 7.81016e-10 -2.90554 0.965183 -0.102902 -2.44189e-09 -1.82489e-09 7.81023e-10 -10.2786 0.731801 -0.0259123 -2.44188e-09 -1.82489e-09 7.81015e-10 -2.22167 -0.733487 0.20892 -2.03217e-16 0.0 -3.88251e-19 1.69411 -33.4568 -8.24722 -0.350874 43.8226 1.14347 -10.5762 -11.7414 -30.4838 2.03217e-16 0.0 3.88251e-19 -10.8497 -3.14158 -15.6973 0.0337279 18.2221 -0.569449 10.7038 -16.1027 27.6615
